<svg width="142" height="29" fill="none" xmlns="http://www.w3.org/2000/svg"><path fill-rule="evenodd" clip-rule="evenodd" d="M7.449 14.795a3.837 3.837 0 0 1-.89 1.415h.003a3.838 3.838 0 0 1-3.549 1.044 3.854 3.854 0 0 1-2.968-4.353A3.862 3.862 0 0 1 2.3 9.96a3.829 3.829 0 0 1 1.884-.309l-.019-.019a4.53 4.53 0 0 0 3.596-1.32 4.563 4.563 0 0 0 1.315-3.608l.019.018a3.872 3.872 0 0 1 .49-2.275A3.852 3.852 0 0 1 11.289.868a3.834 3.834 0 0 1 4.357.764 3.865 3.865 0 0 1 .76 4.373 3.855 3.855 0 0 1-1.573 1.71 3.836 3.836 0 0 1-2.267.491l.02.02A4.53 4.53 0 0 0 8.99 9.543a4.563 4.563 0 0 0-1.316 3.61l-.02-.019a3.847 3.847 0 0 1-.204 1.66Zm6.123 3.523-.02-.02a3.787 3.787 0 0 0 3.066-1.096 3.814 3.814 0 0 0 1.095-3.076l.02.019a4.578 4.578 0 0 1 1.315-3.609 4.544 4.544 0 0 1 3.596-1.32l-.02-.019a3.837 3.837 0 0 0 2.268-.49 3.857 3.857 0 0 0 1.574-1.711 3.875 3.875 0 0 0-.761-4.374 3.843 3.843 0 0 0-4.359-.764 3.853 3.853 0 0 0-1.704 1.58 3.874 3.874 0 0 0-.49 2.275l-.018-.02a4.575 4.575 0 0 1-1.315 3.61 4.541 4.541 0 0 1-3.596 1.32l.018.02a3.785 3.785 0 0 0-3.066 1.096 3.815 3.815 0 0 0-1.095 3.076l-.018-.019a4.579 4.579 0 0 1-1.316 3.608 4.545 4.545 0 0 1-3.596 1.32l.02.02a3.836 3.836 0 0 0-2.269.49 3.856 3.856 0 0 0-1.574 1.711 3.874 3.874 0 0 0 .762 4.374 3.843 3.843 0 0 0 4.358.764 3.853 3.853 0 0 0 1.704-1.58c.393-.69.564-1.484.49-2.276l.02.02a4.577 4.577 0 0 1 1.315-3.61 4.542 4.542 0 0 1 3.596-1.32Zm7.718-5.529a3.84 3.84 0 0 0-1.094 3.076l-.019-.019a4.577 4.577 0 0 1-1.315 3.609 4.544 4.544 0 0 1-3.596 1.32l.019.019a3.836 3.836 0 0 0-2.267.493 3.856 3.856 0 0 0-1.573 1.71 3.875 3.875 0 0 0 .763 4.374 3.843 3.843 0 0 0 4.359.762 3.853 3.853 0 0 0 1.703-1.58c.393-.69.564-1.484.49-2.275l.02.019a4.577 4.577 0 0 1 1.314-3.61 4.543 4.543 0 0 1 3.596-1.32l-.02-.018a3.829 3.829 0 0 0 3.388-1.489 3.861 3.861 0 0 0-2.215-6.114 3.827 3.827 0 0 0-3.55 1.043h-.003Zm17.68-7.051h3.107v15.175H38.97V5.738Zm5.781 6.912a5.524 5.524 0 0 0-.914 3.067 5.465 5.465 0 0 0 1.597 3.9 5.428 5.428 0 0 0 3.892 1.587 5.475 5.475 0 0 0 3.052-.93 5.505 5.505 0 0 0 2.022-2.476 5.528 5.528 0 0 0-1.2-6.007 5.472 5.472 0 0 0-5.99-1.18 5.495 5.495 0 0 0-2.459 2.04Zm6.524 1.756c.27.385.42.84.434 1.31a2.339 2.339 0 0 1-1.445 2.288c-.298.121-.617.18-.938.171a2.378 2.378 0 0 1-2.195-1.461 2.4 2.4 0 0 1 .487-2.599 2.38 2.38 0 0 1 3.657.291ZM67.2 10.52v9.87c0 3.493-2.714 4.969-5.468 4.969a5.28 5.28 0 0 1-2.807-.568 5.305 5.305 0 0 1-2.102-1.952l2.65-1.538a2.372 2.372 0 0 0 2.362 1.31 2.058 2.058 0 0 0 2.212-1.314c.11-.29.154-.601.129-.91v-.951a3.68 3.68 0 0 1-3.025 1.351 5.255 5.255 0 0 1-3.614-1.604 5.293 5.293 0 0 1 0-7.352 5.255 5.255 0 0 1 3.614-1.604 3.668 3.668 0 0 1 3.025 1.352v-1.06l3.024.001Zm-3.023 4.989a2.526 2.526 0 0 0-1.477-2.402 2.503 2.503 0 0 0-2.771.48 2.523 2.523 0 0 0 1.742 4.337 2.334 2.334 0 0 0 1.787-.65 2.352 2.352 0 0 0 .719-1.765Zm5.698-2.858a5.524 5.524 0 0 0-.915 3.067 5.465 5.465 0 0 0 1.598 3.9 5.427 5.427 0 0 0 3.892 1.587 5.475 5.475 0 0 0 3.052-.93 5.505 5.505 0 0 0 2.022-2.476 5.527 5.527 0 0 0-1.2-6.007 5.472 5.472 0 0 0-5.99-1.18 5.494 5.494 0 0 0-2.46 2.04Zm6.524 1.756c.27.385.42.84.433 1.31a2.34 2.34 0 0 1-.654 1.754 2.324 2.324 0 0 1-1.728.705 2.377 2.377 0 0 1-2.196-1.461 2.4 2.4 0 0 1 .487-2.599 2.381 2.381 0 0 1 2.575-.56c.436.17.813.467 1.083.851Zm4.99-6.672a1.876 1.876 0 0 1 1.15-1.729 1.858 1.858 0 0 1 2.032.406 1.873 1.873 0 0 1-1.318 3.194 1.88 1.88 0 0 1-1.313-.553 1.893 1.893 0 0 1-.551-1.318Zm.314 2.786h3.108v10.395h-3.113l.005-10.395Zm16.231 7.22c.23-.649.33-1.336.294-2.023a5.236 5.236 0 0 0-1.338-3.778 5.2 5.2 0 0 0-3.613-1.71 3.877 3.877 0 0 0-3.085 1.267v-.977h-3.107v14.552h3.107v-5.135a3.887 3.887 0 0 0 3.085 1.268 5.186 5.186 0 0 0 3.613-1.71c.46-.51.815-1.107 1.044-1.755Zm-3.258-3.38c.278.398.433.87.445 1.357a2.381 2.381 0 0 1-.666 1.822 2.364 2.364 0 0 1-1.798.714 2.46 2.46 0 0 1-2.272-1.513 2.482 2.482 0 0 1 .507-2.688 2.463 2.463 0 0 1 2.665-.576c.451.178.84.485 1.118.884Zm13.141 3.435c0 2.39-2.071 3.41-4.307 3.41a4.523 4.523 0 0 1-2.606-.551 4.544 4.544 0 0 1-1.848-1.924l2.692-1.538a1.699 1.699 0 0 0 1.757 1.226c.745 0 1.119-.228 1.119-.643 0-.413-.663-.598-1.511-.835-1.502-.42-3.585-1.003-3.585-3.302 0-2.267 1.906-3.41 4.06-3.41a4.515 4.515 0 0 1 2.322.559c.71.391 1.303.966 1.717 1.665l-2.652 1.435a1.503 1.503 0 0 0-1.387-.915c-.539 0-.87.21-.87.582.001.423.651.594 1.486.815 1.506.397 3.613.952 3.613 3.426Zm11.351 3.12V10.52l-3.104.003v5.67c0 1.476-.787 2.14-1.926 2.14a1.704 1.704 0 0 1-1.72-1.156 1.722 1.722 0 0 1-.082-.733V10.52h-3.107v6.38c0 2.81 1.778 4.305 3.871 4.305a3.527 3.527 0 0 0 2.961-1.268v.977h3.107Zm17.817-6.383v6.381h-3.107v-6.112c0-1.04-.497-1.704-1.491-1.704-1.036 0-1.616.728-1.616 1.954v5.862h-3.107v-6.112c0-1.04-.497-1.704-1.492-1.704-1.035 0-1.615.728-1.615 1.954v5.862h-3.107V10.518h3.107v.956a3.18 3.18 0 0 1 2.776-1.246 3.07 3.07 0 0 1 2.713 1.37 3.413 3.413 0 0 1 3.003-1.37c2.379 0 3.936 1.705 3.936 4.304Zm4.934-6.39a2.31 2.31 0 0 1-2.305 2.313 2.31 2.31 0 0 1-2.306-2.314 2.31 2.31 0 0 1 2.306-2.314 2.31 2.31 0 0 1 2.305 2.314Z" fill="#fff"/></svg>