<svg width="126" height="29" fill="none" xmlns="http://www.w3.org/2000/svg"><path fill-rule="evenodd" clip-rule="evenodd" d="M26.21 5.47c.86 1.02 1.568 2.16 2.103 3.381A14.038 14.038 0 0 1 29.49 14.5a14.225 14.225 0 0 1-4.17 10.05 14.277 14.277 0 0 1-10.062 4.177 14.107 14.107 0 0 1-5.333-1.05 13.775 13.775 0 0 1-3.366-1.921A14.213 14.213 0 0 1 .996 15.529a14.183 14.183 0 0 1 3.96-10.947A14.233 14.233 0 0 1 15.781.262 14.252 14.252 0 0 1 26.209 5.47ZM20.002 4.2a11.282 11.282 0 0 0-4.754-1.05l.01-.022a11.376 11.376 0 0 0-5.48 1.403A11.352 11.352 0 0 0 5.654 8.4a11.326 11.326 0 0 0-.672 10.92 3.053 3.053 0 0 0 .83-1.826A6.013 6.013 0 0 1 7.518 14.1a6.03 6.03 0 0 1 3.398-1.7 3.158 3.158 0 0 0 2.85-2.783 6.012 6.012 0 0 1 1.704-3.392 6.03 6.03 0 0 1 3.398-1.7c.391-.06.773-.169 1.136-.326ZM6.676 21.736l-.126.113a11.45 11.45 0 0 0 2.86 2.404c.283-.432.46-.925.516-1.438a6.044 6.044 0 0 1 1.722-3.395 6.063 6.063 0 0 1 3.411-1.697 3.158 3.158 0 0 0 2.83-2.815 5.992 5.992 0 0 1 1.7-3.396 6.01 6.01 0 0 1 3.401-1.696 3.02 3.02 0 0 0 1.904-.924.9.9 0 0 0 .137-.147 11.04 11.04 0 0 0-2.482-2.919 5.769 5.769 0 0 1-3.156 1.501c-.726.05-1.41.36-1.925.872a3.064 3.064 0 0 0-.915 2.006 6.012 6.012 0 0 1-1.703 3.392 6.031 6.031 0 0 1-3.399 1.7c-.723.06-1.4.38-1.903.903a3.064 3.064 0 0 0-.915 1.911 5.75 5.75 0 0 1-1.957 3.625Zm5.417 3.725c1.026.294 2.088.442 3.156.441v-.052a11.399 11.399 0 0 0 8.985-4.445 11.352 11.352 0 0 0 1.975-9.814 6.012 6.012 0 0 1-2.693 1.05 3.148 3.148 0 0 0-2.819 2.814 6.013 6.013 0 0 1-1.707 3.395 6.031 6.031 0 0 1-3.405 1.697 3.158 3.158 0 0 0-2.819 2.814 6.06 6.06 0 0 1-.673 2.1Zm28.2-17.188h-3.155V21.01h3.156V8.274Zm6.175 2.898c-2.987 0-4.923 1.879-4.923 5.029 0 3.203 1.894 5.04 4.923 5.04 3.03 0 4.923-1.89 4.923-5.04 0-3.15-1.935-5.03-4.923-5.03Zm0 2.278c1.073 0 1.757 1.019 1.757 2.751v.01c0 1.754-.673 2.72-1.757 2.72-1.083 0-1.746-1.029-1.746-2.73s.673-2.751 1.746-2.751Zm9.14 8.18H52.58v.01c.178 1.743 1.914 2.992 4.701 2.992 2.998 0 5.028-1.428 5.028-3.727V11.35h-3.155v1.754a3.014 3.014 0 0 0-2.904-1.848c-2.419 0-3.87 1.9-3.87 4.913 0 3.014 1.525 4.767 3.828 4.767a2.991 2.991 0 0 0 2.872-1.721h.063v1.764c0 .945-.631 1.596-1.83 1.596a1.633 1.633 0 0 1-1.704-.945Zm1.726-7.938c1.115 0 1.82.966 1.82 2.498v.011c0 1.554-.695 2.404-1.82 2.404-1.126 0-1.799-.871-1.799-2.415 0-1.543.684-2.499 1.799-2.499ZM68.42 11.16c-2.988 0-4.923 1.88-4.923 5.03v.01c0 3.203 1.883 5.03 4.923 5.03s4.933-1.89 4.933-5.04c0-3.15-1.946-5.03-4.933-5.03Zm0 2.279c1.072 0 1.756 1.018 1.756 2.75v.021c0 1.754-.642 2.73-1.714 2.73-1.073 0-1.736-1.018-1.736-2.73 0-1.711.62-2.771 1.694-2.771Zm6.38-5.28c-.17.27-.256.583-.248.901v.021a1.532 1.532 0 0 0 1.64 1.543 1.61 1.61 0 0 0 1.468-1.023 1.604 1.604 0 0 0-1.223-2.165 1.612 1.612 0 0 0-1.636.724Zm2.907 3.211h-3.155v9.639h3.156v-9.639Zm7.658 9.765c2.398 0 3.797-1.796 3.797-4.945l.042.02c0-3.15-1.44-4.955-3.86-4.997a3.023 3.023 0 0 0-2.924 1.858h-.063V11.35h-3.156v12.747h3.156v-4.746h.063a3.005 3.005 0 0 0 2.945 1.785Zm-1.168-7.455c1.105 0 1.81.977 1.81 2.51v.02c0 1.523-.705 2.479-1.81 2.479-1.104 0-1.83-.977-1.82-2.5.011-1.522.716-2.509 1.82-2.509Zm14.663.693c-.073-1.985-1.662-3.224-4.28-3.224v.021c-2.61 0-4.303 1.229-4.324 3.119 0 1.47.989 2.468 2.872 2.856l1.82.389c.757.157 1.051.262 1.051.766s-.42.809-1.346.809c-.926 0-1.494-.42-1.588-1.134h-3.04c.136 1.963 1.893 3.244 4.575 3.244 2.683 0 4.502-1.281 4.502-3.276 0-1.46-.82-2.236-2.745-2.646l-2.02-.41c-.704-.146-1.051-.304-1.051-.797 0-.494.389-.83 1.262-.83s1.44.43 1.44 1.113h2.872Zm7.732 6.615h3.039l.043-9.639h-3.156v5.439a1.598 1.598 0 0 1-.387 1.27 1.607 1.607 0 0 1-1.212.546c-.978 0-1.567-.608-1.567-1.753V11.35h-3.156v6.226a3.346 3.346 0 0 0 2.128 3.4c.447.174.927.25 1.407.223a2.749 2.749 0 0 0 2.798-2.006h.063v1.796Zm7.615-9.639h-3.05l-.053 9.66h3.156v-5.68a1.4 1.4 0 0 1 .821-1.451c.181-.082.378-.124.578-.125.862 0 1.336.526 1.336 1.492v5.764h2.997v-5.702a1.378 1.378 0 0 1 1.378-1.553c.884 0 1.357.482 1.357 1.532v5.723h3.156v-6.563a3.052 3.052 0 0 0-1.901-3.053 3.069 3.069 0 0 0-1.255-.223 2.968 2.968 0 0 0-2.966 2.1h-.063a2.508 2.508 0 0 0-2.682-2.1 2.802 2.802 0 0 0-2.746 2.038h-.063V11.35Z" fill="#fff"/></svg>