<svg width="124" height="26" fill="none" xmlns="http://www.w3.org/2000/svg"><path fill-rule="evenodd" clip-rule="evenodd" d="M5.507 3.733a14.23 14.23 0 0 0-5.078 7.78h1.255a10.18 10.18 0 0 1 5.933 1.799c.1.072.205.138.313.198h.147c.109-.06.213-.126.314-.198a10.685 10.685 0 0 1 5.937-1.8c2.115 0 4.182.627 5.938 1.8.1.072.205.138.314.198h.146c.109-.06.213-.126.314-.198a10.18 10.18 0 0 1 5.932-1.8h1.255a14.23 14.23 0 0 0-5.078-7.779 14.378 14.378 0 0 0-8.82-3.02 14.378 14.378 0 0 0-8.822 3.02Zm21.465 13.562a3.54 3.54 0 0 0-2.26.739 7.145 7.145 0 0 1-8.13 0 3.519 3.519 0 0 0-2.259-.739 3.56 3.56 0 0 0-2.26.739 7.123 7.123 0 0 1-8.119 0 3.539 3.539 0 0 0-2.26-.739H0v-3.338h1.737a6.702 6.702 0 0 1 4.06 1.269 3.824 3.824 0 0 0 4.519 0 7.144 7.144 0 0 1 8.13 0 3.824 3.824 0 0 0 4.519 0 6.702 6.702 0 0 1 4.007-1.27h1.684v3.34h-1.684Zm0 5.97a3.54 3.54 0 0 0-2.26.738 7.145 7.145 0 0 1-8.13 0 3.519 3.519 0 0 0-2.259-.738 3.56 3.56 0 0 0-2.26.738 7.123 7.123 0 0 1-8.119 0 3.539 3.539 0 0 0-2.26-.738H0v-3.339h1.737a6.702 6.702 0 0 1 4.06 1.27 3.824 3.824 0 0 0 4.519 0 7.144 7.144 0 0 1 8.13 0 3.824 3.824 0 0 0 4.519 0 6.702 6.702 0 0 1 4.007-1.27h1.684v3.339h-1.684Zm10.86-3.079c.51.357 1.125.533 1.747.5a3.962 3.962 0 0 0 1.193-.198.273.273 0 0 0 .249-.208.268.268 0 0 0 .002-.115l-.157-1.3c-.01-.187-.125-.25-.335-.25-.15.042-.305.06-.46.053-.366 0-.544-.198-.544-.593V9.183c0-.198-.094-.302-.293-.302h-1.758a.274.274 0 0 0-.29.18.268.268 0 0 0-.013.122v9.64a1.614 1.614 0 0 0 .66 1.363Zm8.495.509a4.946 4.946 0 0 0 3.14-1.122v-.01a4.209 4.209 0 0 0 1.181-2.923c0-1.09-.423-2.136-1.182-2.922a4.967 4.967 0 0 0-6.277 0 4.147 4.147 0 0 0-1.212 2.927c0 1.097.436 2.149 1.212 2.928a4.946 4.946 0 0 0 3.139 1.122Zm.011-1.922a2.236 2.236 0 0 1-1.496-.573 2.321 2.321 0 0 1 0-3.058 2.236 2.236 0 0 1 2.992 0 2.322 2.322 0 0 1 0 3.058c-.41.369-.943.573-1.496.573Zm13.988-5.908c.199 0 .293.104.293.301v7.457a3.373 3.373 0 0 1-1.161 2.673 4.41 4.41 0 0 1-3.045 1.04 4.918 4.918 0 0 1-2.835-.78 3.128 3.128 0 0 1-1.371-2.08c0-.208 0-.302.282-.302h1.758a.39.39 0 0 1 .346.24c.113.316.34.578.638.738a2.46 2.46 0 0 0 1.171.27 1.86 1.86 0 0 0 1.35-.478 1.767 1.767 0 0 0 .492-1.3v-.655c-.63.46-1.395.698-2.176.676a4.08 4.08 0 0 1-2.972-1.134 4.147 4.147 0 0 1-1.176-2.891c0-1.079.422-2.116 1.176-2.891a4.095 4.095 0 0 1 2.972-1.123 3.53 3.53 0 0 1 2.228.717v-.166a.269.269 0 0 1 .175-.285.273.273 0 0 1 .118-.017l1.737-.01Zm-4.06 5.949A1.85 1.85 0 0 0 57.7 18.2a2.538 2.538 0 0 0 0-3.12 1.831 1.831 0 0 0-1.423-.603 1.894 1.894 0 0 0-1.454.613 2.197 2.197 0 0 0-.565 1.56c-.02.568.179 1.122.554 1.55a1.892 1.892 0 0 0 1.454.614Zm10.243 1.875a4.967 4.967 0 0 0 3.139-1.116v-.01a4.209 4.209 0 0 0 1.181-2.923c0-1.09-.423-2.136-1.181-2.923a4.977 4.977 0 0 0-6.278 0 4.22 4.22 0 0 0-1.182 2.928c0 1.091.423 2.14 1.182 2.928a4.967 4.967 0 0 0 3.139 1.116Zm-.8-2.053a2.095 2.095 0 0 1-.696-.436 2.352 2.352 0 0 1 0-3.058 2.093 2.093 0 0 1 1.506-.572 2.104 2.104 0 0 1 1.497.572 2.352 2.352 0 0 1 0 3.058 2.095 2.095 0 0 1-1.497.572 2.106 2.106 0 0 1-.81-.136Zm8.898-7.54a1.523 1.523 0 0 1-1.998 0 1.258 1.258 0 0 1-.294-1.413c.069-.157.169-.299.294-.417a1.554 1.554 0 0 1 1.998 0 1.259 1.259 0 0 1 .294 1.414c-.068.157-.168.3-.294.417Zm.22 9.59a2.827 2.827 0 0 1-1.747-.5 1.646 1.646 0 0 1-.649-1.362v-5.658a.27.27 0 0 1 .182-.289.274.274 0 0 1 .121-.012h1.758c.199 0 .293.104.293.301v4.91c0 .394.178.592.534.592.158.006.317-.012.47-.052.21 0 .325.062.335.25l.157 1.3a.27.27 0 0 1-.25.322 3.988 3.988 0 0 1-1.204.198Zm9.53-7.811a4.122 4.122 0 0 0-1.61-.26 3.544 3.544 0 0 0-2.584 1.04 1.945 1.945 0 0 0-1.894-1.04 3.154 3.154 0 0 0-1.13.187.334.334 0 0 0-.24.344v1.227c0 .166.114.25.345.25h.345a.545.545 0 0 1 .617.613v8.528a.247.247 0 0 0 .07.222.251.251 0 0 0 .223.07h1.758c.198 0 .303-.094.303-.292V20.01a3.615 3.615 0 0 0 2.187.676 4.093 4.093 0 0 0 2.992-1.134 4.25 4.25 0 0 0 1.151-2.907 4.25 4.25 0 0 0-1.151-2.907 4.102 4.102 0 0 0-1.381-.863Zm-2.584 5.778a2 2 0 0 1-.658-.453 2.322 2.322 0 0 1-.555-1.591 2.29 2.29 0 0 1 .555-1.591 1.998 1.998 0 0 1 1.443-.614 2.008 2.008 0 0 1 1.444.614c.396.433.603 1.006.576 1.59a2.238 2.238 0 0 1-.576 1.592 1.999 1.999 0 0 1-1.444.613 2.01 2.01 0 0 1-.785-.16Zm10.055 2.033a5.067 5.067 0 0 1-2.689-.645 2.546 2.546 0 0 1-1.213-1.841c0-.208.073-.312.303-.312h1.538a.399.399 0 0 1 .345.229c.22.561.796.842 1.716.842.321.015.641-.05.931-.187a.605.605 0 0 0 .356-.51c0-.27-.167-.457-.502-.582a5.687 5.687 0 0 0-1.224-.26 11.705 11.705 0 0 1-1.465-.26 2.41 2.41 0 0 1-1.224-.697 2.22 2.22 0 0 1-.48-1.71 2.217 2.217 0 0 1 .93-1.514 4.33 4.33 0 0 1 2.532-.666c.864-.029 1.72.184 2.469.614a2.327 2.327 0 0 1 1.15 1.633c0 .208-.093.312-.282.312h-1.548a.326.326 0 0 1-.314-.187 1.043 1.043 0 0 0-.544-.552 1.85 1.85 0 0 0-.9-.208 1.829 1.829 0 0 0-.89.177.523.523 0 0 0-.334.479.663.663 0 0 0 .502.613c.402.15.82.255 1.245.312.49.064.975.155 1.455.27a2.41 2.41 0 0 1 1.224.697 1.961 1.961 0 0 1 .512 1.425 2.07 2.07 0 0 1-.973 1.81 4.593 4.593 0 0 1-2.626.718Zm14.654-.41a.296.296 0 0 0 .004-.11l-.125-1.3a.28.28 0 0 0-.032-.117.274.274 0 0 0-.314-.133 1.66 1.66 0 0 1-.481.052c-.345 0-.523-.198-.523-.603v-4.899c0-.197-.094-.301-.293-.301h-1.779c-.198 0-.293.104-.293.301v3.828a1.652 1.652 0 0 1-.47 1.237 1.75 1.75 0 0 1-1.256.458 1.581 1.581 0 0 1-1.203-.49 1.834 1.834 0 0 1-.45-1.278v-3.755c0-.197-.094-.301-.293-.301h-1.758c-.198 0-.292.104-.292.301v4.067a3.392 3.392 0 0 0 .93 2.506 3.244 3.244 0 0 0 2.449.947 3.803 3.803 0 0 0 2.668-.905 2.323 2.323 0 0 0 2.092.905c.402-.008.8-.074 1.182-.198a.279.279 0 0 0 .189-.11.29.29 0 0 0 .048-.102Zm16.629-.11c.009.037.01.076.002.113a.263.263 0 0 1-.243.209 4.082 4.082 0 0 1-1.203.198 2.805 2.805 0 0 1-1.747-.5 1.616 1.616 0 0 1-.701-1.362V16.38a1.831 1.831 0 0 0-.44-1.28 1.482 1.482 0 0 0-1.171-.488 1.32 1.32 0 0 0-1.047.458 1.843 1.843 0 0 0-.397 1.227v3.837c0 .198-.094.302-.293.302h-1.768a.274.274 0 0 1-.291-.18.263.263 0 0 1-.013-.122V16.38a1.916 1.916 0 0 0-.408-1.28 1.351 1.351 0 0 0-1.046-.488 1.529 1.529 0 0 0-1.151.458 1.712 1.712 0 0 0-.429 1.227v3.837a.263.263 0 0 1-.013.122.266.266 0 0 1-.168.167.276.276 0 0 1-.122.013h-1.706c-.198 0-.293-.104-.293-.302v-4.898a.537.537 0 0 0-.367-.592.544.544 0 0 0-.25-.021h-.345c-.23 0-.345-.084-.345-.25v-1.227a.326.326 0 0 1 .059-.214.336.336 0 0 1 .181-.13c.362-.13.745-.194 1.13-.187a1.975 1.975 0 0 1 1.862.957 3.544 3.544 0 0 1 2.658-.957 3.018 3.018 0 0 1 2.48 1.103 3.447 3.447 0 0 1 2.741-1.103 3.322 3.322 0 0 1 2.479.947 3.387 3.387 0 0 1 .931 2.506v2.007c0 .396.178.593.513.593.162.008.325-.01.481-.052.217 0 .332.083.346.25l.094 1.3Z" fill="#fff"/></svg>