<svg width="137" height="32" fill="none" xmlns="http://www.w3.org/2000/svg"><path fill-rule="evenodd" clip-rule="evenodd" d="M14.348.524v4.505A10.844 10.844 0 0 0 6.65 8.242 11.014 11.014 0 0 0 3.46 16c0 2.91 1.147 5.7 3.189 7.758a10.844 10.844 0 0 0 7.698 3.213V5.029c2.887 0 5.656 1.156 7.698 3.213A11.014 11.014 0 0 1 25.234 16c0 2.91-1.147 5.7-3.188 7.758a10.845 10.845 0 0 1-7.698 3.213v4.505H.253V.524h14.095ZM36.3 7.784h-3.155v15.318H36.3V7.785ZM39 14.76a5.596 5.596 0 0 0-.933 3.095 5.528 5.528 0 0 0 1.585 3.946 5.411 5.411 0 0 0 3.906 1.62 5.492 5.492 0 0 0 3.077-.923 5.556 5.556 0 0 0 2.047-2.491 5.605 5.605 0 0 0 .328-3.218 5.579 5.579 0 0 0-1.504-2.858 5.51 5.51 0 0 0-2.827-1.532 5.483 5.483 0 0 0-3.195.312A5.531 5.531 0 0 0 39 14.76Zm6.543 1.77c.27.389.422.85.434 1.325h-.02a2.37 2.37 0 0 1-.653 1.762 2.334 2.334 0 0 1-1.725.718c-.471 0-.932-.14-1.325-.403a2.413 2.413 0 0 1-.884-1.074 2.434 2.434 0 0 1 .492-2.626 2.38 2.38 0 0 1 2.592-.564c.44.173.818.473 1.089.862Zm15.991-3.922v9.975c0 3.519-2.734 5.013-5.5 5.013a5.225 5.225 0 0 1-2.827-.564 5.276 5.276 0 0 1-2.107-1.98l2.661-1.547c.216.438.559.8.983 1.036.425.237.911.338 1.394.289a2.088 2.088 0 0 0 1.704-.565 2.12 2.12 0 0 0 .653-1.682v-.965a3.716 3.716 0 0 1-1.361 1.04 3.688 3.688 0 0 1-1.68.317 5.239 5.239 0 0 1-3.718-1.553 5.32 5.32 0 0 1-1.54-3.747c0-1.406.553-2.754 1.54-3.748a5.24 5.24 0 0 1 3.719-1.552 3.687 3.687 0 0 1 1.679.316c.527.236.993.592 1.36 1.04v-1.06l3.04-.063Zm-3.04 5.035a2.559 2.559 0 0 0-.373-1.441 2.53 2.53 0 0 0-1.11-.984 2.507 2.507 0 0 0-2.786.482 2.562 2.562 0 0 0-.596 2.784c.188.472.511.875.928 1.16.417.284.91.437 1.413.437a2.34 2.34 0 0 0 1.8-.654 2.375 2.375 0 0 0 .724-1.784Zm5.75-2.88a5.595 5.595 0 0 0-.932 3.092 5.539 5.539 0 0 0 1.595 3.95 5.422 5.422 0 0 0 3.917 1.615 5.492 5.492 0 0 0 3.07-.933 5.556 5.556 0 0 0 2.04-2.495c.419-1.017.53-2.136.318-3.216a5.579 5.579 0 0 0-1.51-2.852 5.51 5.51 0 0 0-2.827-1.526 5.484 5.484 0 0 0-3.192.315 5.532 5.532 0 0 0-2.48 2.05Zm6.543 1.766c.271.39.422.85.435 1.326h-.01a2.37 2.37 0 0 1-.653 1.762 2.333 2.333 0 0 1-1.725.718 2.385 2.385 0 0 1-1.328-.398 2.413 2.413 0 0 1-.888-1.072 2.434 2.434 0 0 1 .485-2.63 2.382 2.382 0 0 1 2.593-.569c.44.174.82.474 1.09.863Zm5.01-6.73c0-.373.11-.738.316-1.048a1.859 1.859 0 0 1 2.88-.286 1.892 1.892 0 0 1 .407 2.056c-.142.345-.382.64-.69.847-.307.207-.67.318-1.04.318a1.886 1.886 0 0 1-1.318-.559 1.915 1.915 0 0 1-.554-1.328Zm.306 2.809h3.156v10.494h-3.156V12.608Zm16.361 7.301a5.336 5.336 0 0 0 .3-2.054 5.338 5.338 0 0 0-1.371-3.814 5.227 5.227 0 0 0-3.646-1.72 3.877 3.877 0 0 0-3.156 1.273v-.986h-3.155v14.713h3.155v-5.184a3.886 3.886 0 0 0 3.156 1.283 5.226 5.226 0 0 0 3.657-1.73 5.306 5.306 0 0 0 1.06-1.78Zm-3.305-3.427c.28.403.437.88.45 1.373a2.411 2.411 0 0 1-.666 1.84 2.378 2.378 0 0 1-1.806.725 2.47 2.47 0 0 1-1.376-.412 2.497 2.497 0 0 1-.919-1.11 2.52 2.52 0 0 1 .504-2.722 2.465 2.465 0 0 1 2.685-.587c.455.18.847.49 1.128.893Zm13.209 3.472c0 2.416-2.104 3.445-4.334 3.445a4.535 4.535 0 0 1-2.621-.558 4.585 4.585 0 0 1-1.86-1.944l2.714-1.547c.108.378.34.707.66.933.32.226.707.334 1.097.307.746 0 1.125-.233 1.125-.657 0-.417-.666-.603-1.517-.842-1.51-.423-3.605-1.01-3.605-3.335 0-2.29 1.914-3.434 4.08-3.434a4.539 4.539 0 0 1 2.369.545 4.581 4.581 0 0 1 1.755 1.691L99.517 16a1.528 1.528 0 0 0-1.399-.922c-.547 0-.873.212-.873.583 0 .433.657.608 1.501.834 1.512.404 3.622.969 3.622 3.459Zm11.433 3.148V12.608h-3.113v5.777c0 1.442-.8 2.12-1.936 2.12a1.71 1.71 0 0 1-1.347-.53 1.758 1.758 0 0 1-.473-1.377v-5.99h-3.155v6.466c0 2.83 1.799 4.346 3.902 4.346a3.568 3.568 0 0 0 2.967-1.304v.986h3.155Zm17.882-6.445v6.445h-3.156v-6.17c0-1.06-.494-1.716-1.493-1.716-.999 0-1.631.731-1.631 1.971v5.915h-3.155v-6.17c0-1.06-.494-1.716-1.494-1.716-.999 0-1.63.731-1.63 1.971v5.915h-3.156V12.608h3.156v.965a3.222 3.222 0 0 1 1.242-.982 3.196 3.196 0 0 1 1.556-.27 3.066 3.066 0 0 1 2.724 1.379c.347-.468.805-.84 1.333-1.081a3.407 3.407 0 0 1 1.686-.297c2.461 0 4.018 1.717 4.018 4.335Zm4.965-6.445a2.323 2.323 0 0 1-2.314 2.332 2.323 2.323 0 0 1-2.314-2.332 2.323 2.323 0 0 1 2.314-2.332 2.323 2.323 0 0 1 2.314 2.332Z" fill="#fff"/></svg>