<svg width="42" height="42" viewBox="0 0 42 42" fill="none" xmlns="http://www.w3.org/2000/svg">
<path d="M21.0006 5.72729C16.8529 5.72729 16.3324 5.74543 14.7033 5.81957C13.0775 5.89402 11.9677 6.15143 10.9966 6.52911C9.99215 6.9192 9.14008 7.44102 8.2912 8.29025C7.44168 9.13916 6.91988 9.99125 6.52853 10.9954C6.1499 11.9668 5.89218 13.077 5.819 14.7022C5.74614 16.3313 5.72705 16.8522 5.72705 21C5.72705 25.1478 5.74551 25.6668 5.81932 27.2959C5.89409 28.9218 6.15149 30.0316 6.52884 31.0027C6.91924 32.0072 7.44104 32.8593 8.29025 33.7082C9.13881 34.5577 9.99088 35.0808 10.9947 35.4709C11.9664 35.8486 13.0765 36.106 14.7021 36.1805C16.3311 36.2546 16.8513 36.2727 20.9987 36.2727C25.1467 36.2727 25.6656 36.2546 27.2947 36.1805C28.9205 36.106 30.0316 35.8486 31.0033 35.4709C32.0074 35.0808 32.8582 34.5577 33.7068 33.7082C34.5563 32.8593 35.0781 32.0072 35.4695 31.003C35.8449 30.0316 36.1026 28.9215 36.179 27.2962C36.2522 25.6671 36.2713 25.1478 36.2713 21C36.2713 16.8522 36.2522 16.3317 36.179 14.7026C36.1026 13.0767 35.8449 11.9668 35.4695 10.9957C35.0781 9.99125 34.5563 9.13916 33.7068 8.29025C32.8573 7.4407 32.0078 6.91889 31.0023 6.52911C30.0287 6.15143 28.9183 5.89402 27.2924 5.81957C25.6634 5.74543 25.1448 5.72729 20.9958 5.72729H21.0006ZM19.6305 8.47957C20.0372 8.47893 20.4909 8.47957 21.0006 8.47957C25.0783 8.47957 25.5616 8.4942 27.1719 8.56739C28.6609 8.63548 29.4691 8.88429 30.0074 9.09334C30.7201 9.37016 31.2282 9.70107 31.7624 10.2356C32.297 10.7702 32.6279 11.2792 32.9053 11.992C33.1144 12.5297 33.3635 13.3379 33.4313 14.827C33.5044 16.437 33.5203 16.9206 33.5203 20.9965C33.5203 25.0724 33.5044 25.5561 33.4313 27.1661C33.3632 28.6552 33.1144 29.4633 32.9053 30.0011C32.6285 30.7138 32.297 31.2213 31.7624 31.7555C31.2279 32.2901 30.7204 32.621 30.0074 32.8978C29.4697 33.1078 28.6609 33.356 27.1719 33.4241C25.5619 33.4972 25.0783 33.5132 21.0006 33.5132C16.9226 33.5132 16.4393 33.4972 14.8293 33.4241C13.3403 33.3553 12.5321 33.1065 11.9935 32.8975C11.2807 32.6207 10.7717 32.2897 10.2371 31.7552C9.70261 31.2207 9.37171 30.7128 9.09427 29.9998C8.88523 29.4621 8.6361 28.6539 8.56833 27.1648C8.49515 25.5548 8.48051 25.0712 8.48051 20.9927C8.48051 16.9142 8.49515 16.4332 8.56833 14.8232C8.63642 13.3341 8.88523 12.5259 9.09427 11.9875C9.37108 11.2748 9.70261 10.7657 10.2371 10.2312C10.7717 9.69661 11.2807 9.3657 11.9935 9.08825C12.5318 8.87825 13.3403 8.63007 14.8293 8.56166C16.2382 8.49802 16.7842 8.47893 19.6305 8.47575V8.47957ZM29.1528 11.0155C28.141 11.0155 27.3201 11.8354 27.3201 12.8476C27.3201 13.8594 28.141 14.6803 29.1528 14.6803C30.1646 14.6803 30.9855 13.8594 30.9855 12.8476C30.9855 11.8357 30.1646 11.0148 29.1528 11.0148V11.0155ZM21.0006 13.1568C16.6693 13.1568 13.1576 16.6686 13.1576 21C13.1576 25.3314 16.6693 28.8416 21.0006 28.8416C25.3319 28.8416 28.8423 25.3314 28.8423 21C28.8423 16.6686 25.3315 13.1568 21.0003 13.1568H21.0006ZM21.0006 15.9091C23.812 15.9091 26.0913 18.1882 26.0913 21C26.0913 23.8115 23.812 26.0909 21.0006 26.0909C18.1889 26.0909 15.9098 23.8115 15.9098 21C15.9098 18.1882 18.1889 15.9091 21.0006 15.9091Z" fill="url(#paint0_radial_1_174)"/>
<path d="M21.0006 5.72729C16.8529 5.72729 16.3324 5.74543 14.7033 5.81957C13.0775 5.89402 11.9677 6.15143 10.9966 6.52911C9.99215 6.9192 9.14008 7.44102 8.2912 8.29025C7.44168 9.13916 6.91988 9.99125 6.52853 10.9954C6.1499 11.9668 5.89218 13.077 5.819 14.7022C5.74614 16.3313 5.72705 16.8522 5.72705 21C5.72705 25.1478 5.74551 25.6668 5.81932 27.2959C5.89409 28.9218 6.15149 30.0316 6.52884 31.0027C6.91924 32.0072 7.44104 32.8593 8.29025 33.7082C9.13881 34.5577 9.99088 35.0808 10.9947 35.4709C11.9664 35.8486 13.0765 36.106 14.7021 36.1805C16.3311 36.2546 16.8513 36.2727 20.9987 36.2727C25.1467 36.2727 25.6656 36.2546 27.2947 36.1805C28.9205 36.106 30.0316 35.8486 31.0033 35.4709C32.0074 35.0808 32.8582 34.5577 33.7068 33.7082C34.5563 32.8593 35.0781 32.0072 35.4695 31.003C35.8449 30.0316 36.1026 28.9215 36.179 27.2962C36.2522 25.6671 36.2713 25.1478 36.2713 21C36.2713 16.8522 36.2522 16.3317 36.179 14.7026C36.1026 13.0767 35.8449 11.9668 35.4695 10.9957C35.0781 9.99125 34.5563 9.13916 33.7068 8.29025C32.8573 7.4407 32.0078 6.91889 31.0023 6.52911C30.0287 6.15143 28.9183 5.89402 27.2924 5.81957C25.6634 5.74543 25.1448 5.72729 20.9958 5.72729H21.0006ZM19.6305 8.47957C20.0372 8.47893 20.4909 8.47957 21.0006 8.47957C25.0783 8.47957 25.5616 8.4942 27.1719 8.56739C28.6609 8.63548 29.4691 8.88429 30.0074 9.09334C30.7201 9.37016 31.2282 9.70107 31.7624 10.2356C32.297 10.7702 32.6279 11.2792 32.9053 11.992C33.1144 12.5297 33.3635 13.3379 33.4313 14.827C33.5044 16.437 33.5203 16.9206 33.5203 20.9965C33.5203 25.0724 33.5044 25.5561 33.4313 27.1661C33.3632 28.6552 33.1144 29.4633 32.9053 30.0011C32.6285 30.7138 32.297 31.2213 31.7624 31.7555C31.2279 32.2901 30.7204 32.621 30.0074 32.8978C29.4697 33.1078 28.6609 33.356 27.1719 33.4241C25.5619 33.4972 25.0783 33.5132 21.0006 33.5132C16.9226 33.5132 16.4393 33.4972 14.8293 33.4241C13.3403 33.3553 12.5321 33.1065 11.9935 32.8975C11.2807 32.6207 10.7717 32.2897 10.2371 31.7552C9.70261 31.2207 9.37171 30.7128 9.09427 29.9998C8.88523 29.4621 8.6361 28.6539 8.56833 27.1648C8.49515 25.5548 8.48051 25.0712 8.48051 20.9927C8.48051 16.9142 8.49515 16.4332 8.56833 14.8232C8.63642 13.3341 8.88523 12.5259 9.09427 11.9875C9.37108 11.2748 9.70261 10.7657 10.2371 10.2312C10.7717 9.69661 11.2807 9.3657 11.9935 9.08825C12.5318 8.87825 13.3403 8.63007 14.8293 8.56166C16.2382 8.49802 16.7842 8.47893 19.6305 8.47575V8.47957ZM29.1528 11.0155C28.141 11.0155 27.3201 11.8354 27.3201 12.8476C27.3201 13.8594 28.141 14.6803 29.1528 14.6803C30.1646 14.6803 30.9855 13.8594 30.9855 12.8476C30.9855 11.8357 30.1646 11.0148 29.1528 11.0148V11.0155ZM21.0006 13.1568C16.6693 13.1568 13.1576 16.6686 13.1576 21C13.1576 25.3314 16.6693 28.8416 21.0006 28.8416C25.3319 28.8416 28.8423 25.3314 28.8423 21C28.8423 16.6686 25.3315 13.1568 21.0003 13.1568H21.0006ZM21.0006 15.9091C23.812 15.9091 26.0913 18.1882 26.0913 21C26.0913 23.8115 23.812 26.0909 21.0006 26.0909C18.1889 26.0909 15.9098 23.8115 15.9098 21C15.9098 18.1882 18.1889 15.9091 21.0006 15.9091Z" fill="white"/>
<defs>
<radialGradient id="paint0_radial_1_174" cx="0" cy="0" r="1" gradientUnits="userSpaceOnUse" gradientTransform="translate(13.8404 38.6254) rotate(-90) scale(30.2728 28.1549)">
<stop stop-color="#FFDD55"/>
<stop offset="0.1" stop-color="#FFDD55"/>
<stop offset="0.5" stop-color="#FF543E"/>
<stop offset="1" stop-color="#C837AB"/>
</radialGradient>
</defs>
</svg>
