<svg width="108" height="22" fill="none" xmlns="http://www.w3.org/2000/svg"><g clip-path="url(#a)" fill="#fff"><path d="M107.809 16.777v2.684h-2.242c-2.393-.076-3.671-1.373-3.671-3.81V9.52h-1.565V7.166h1.565V4.531h3.308v2.608h2.529v2.348h-2.529v5.834c0 .79.157 1.421 1.367 1.421l1.238.035ZM87.145 13.338v-.179a6.029 6.029 0 0 1 1.564-4.33 5.982 5.982 0 0 1 4.157-1.944h.479c3.124 0 5.865 1.826 5.865 6.178v.927h-8.681c.089 2.004 1.169 3.137 2.987 3.137 1.565 0 2.296-.687 2.508-1.689h3.124c-.383 2.615-2.46 4.07-5.748 4.07-3.61-.027-6.255-2.32-6.255-6.17Zm8.811-1.449c-.116-1.826-1.032-2.704-2.625-2.704s-2.508.988-2.734 2.704h5.359ZM73.638 13.338v-.179a6.03 6.03 0 0 1 1.56-4.325 5.981 5.981 0 0 1 4.148-1.949h.478c3.124 0 5.872 1.826 5.872 6.178v.927h-8.674c.089 2.004 1.169 3.137 2.987 3.137 1.565 0 2.297-.687 2.508-1.689h3.124c-.39 2.615-2.467 4.07-5.755 4.07-3.602-.027-6.248-2.32-6.248-6.17Zm8.811-1.449c-.116-1.826-1.032-2.704-2.625-2.704-1.592 0-2.48 1.015-2.734 2.697l5.36.007ZM54.684 7.139h3.5l2.139 8.141 2.344-8.141h2.735l2.119 8.141 2.255-8.141h3.206l-3.8 12.095H65.9l-2.051-7.592-2.194 7.592h-3.322l-3.65-12.095ZM43.562 15.431h3.124c.144 1.092.684 1.716 2.119 1.716 1.285 0 1.88-.487 1.88-1.318 0-.83-.684-1.18-2.434-1.428-3.205-.487-4.443-1.414-4.443-3.775 0-2.52 2.297-3.769 4.785-3.769 2.673 0 4.69.975 4.976 3.755h-3.082a1.64 1.64 0 0 0-.586-1.111 1.625 1.625 0 0 0-1.199-.365H48.6c-1.08 0-1.709.508-1.709 1.25 0 .741.581 1.064 2.345 1.318 2.994.453 4.668 1.215 4.668 3.803s-1.893 3.974-5.065 3.974c-3.171 0-5.188-1.435-5.277-4.05ZM30.288 7.139h3.308v1.915a4.152 4.152 0 0 1 1.631-1.673 4.128 4.128 0 0 1 2.272-.523c2.345 0 4.047 1.434 4.047 4.708v7.696h-3.267v-7.215c0-1.64-.636-2.423-2.113-2.423a2.37 2.37 0 0 0-1.74.554 2.387 2.387 0 0 0-.837 1.629 1.888 1.888 0 0 0 0 .44v6.987h-3.301V7.139ZM23.903 4.098a1.681 1.681 0 0 1 .975-1.584 1.661 1.661 0 0 1 1.83.298 1.677 1.677 0 0 1-1.082 2.9h-.062a1.552 1.552 0 0 1-1.5-.878 1.57 1.57 0 0 1-.154-.592 1.021 1.021 0 0 1-.007-.144Zm0 3.041h3.343v12.095h-3.329L23.903 7.14ZM11.306 2.705h10.568v2.93h-6.836v4.373h5.414v2.822h-5.42v6.404h-3.726V2.704ZM4.928 8.114c0 1.036 0 2.3-1.421 2.814 1.456.501 1.421 1.565 1.421 2.677v4.119c0 .782.315 1.256.875 1.373.123.041.253.06.383.055h1.367v2.745H5.297c-2.406 0-3.732-1.372-3.732-3.92v-4.873a1.004 1.004 0 0 0-.977-.933H0V9.76h.588a.989.989 0 0 0 .977-.96V3.857C1.565 1.352 2.865 0 5.297 0h2.277v2.705H6.207c-.13 0-.26.02-.383.061-.56.145-.875.611-.875 1.373l-.02 3.975Z"/></g><defs><clipPath id="a"><path fill="#fff" d="M0 0h108v21.966H0z"/></clipPath></defs></svg>